<svg xmlns="http://www.w3.org/2000/svg" width="982" height="954" viewBox="0 0 982 954">
  <defs>
    <style>
      .cls-1 {
        fill-rule: evenodd;
      }
    </style>
  </defs>
  <path id="Color_Fill_1" data-name="Color Fill 1" class="cls-1" d="M483,160c1.694,14.543,13.468,39.62,19,53,13.119,31.728,21.245,65.055,34,96,8.654,20.994,12.345,41.989,21,63,25.927,62.944,44.089,131.05,70,194,6.368,15.471,8.636,30.527,15,46,15.013,36.5,24.692,75.682,40,113,6.278,15.3,10.4,31.884,17,48,2.683,6.553,6.733,14.147,8,22H548L509,682H265c-9.958,23.514-15.866,48.482-25,73-4.579,12.29-11.893,26.2-14,40H67c0.457-9.457,5.9-18.5,9-26,4.333-10.475,6.993-21.3,11-31,13.108-31.734,21.255-65.051,34-96,8.647-21,12.347-41.988,21-63,32.373-78.615,54.671-163.364,87-242,17.621-42.86,28.729-87.906,46-130,4.894-11.927,9.079-37.3,16-46,6.392-3.956,42.5-1,53-1H483Zm279,0H915V383c-4.738,20.632-6.911,44.317-12,65q-1,9-2,18c-5.22,20.531-5.485,43.3-11,65-5.375,21.149-9.117,45.614-12,68H793c0.051-14.178-2.964-29.462-6-42-4.045-16.706-3.215-34.344-7-50q-1.5-14-3-28c-7.545-31.553-7.679-67.284-15-99V160ZM386,330c-0.768,7.606-4.674,13.929-7,20-6.357,16.592-10.534,33.411-17,49-10.426,25.137-14.642,50.833-25,76-10.028,24.364-21.771,53.7-28,80H465v-1c-7.479-10.363-10.565-33.832-16-47-15.659-37.939-27.613-79.445-42-118-5.074-13.6-8.791-27.334-14-40C390.439,342.771,390.7,334.026,386,330ZM767,650H910V795H767V650Z"/>
</svg>
