<svg width="295" height="299" viewBox="0 0 295 299" fill="none" xmlns="http://www.w3.org/2000/svg">
<g filter="url(#filter0_d_1_4)">
<mask id="path-1-inside-1_1_4" fill="white">
<path d="M16 9.5L4.5 291H87L94.5 108.5C94.5 96.5 110 76.5 150 67C193.41 56.6901 206.5 84.8333 207 96.5L197.5 288.5H281C287.167 223.5 290.5 89 290.5 64.5C290.5 34.1355 254 0 191.5 0C141.5 0 106 28.6667 94.5 43V9.5H16Z"/>
</mask>
<path d="M4.5 291L-495.083 270.591L-516.343 791L4.5 791V291ZM16 9.5V-490.5H-463.991L-483.583 -10.9093L16 9.5ZM94.5 9.5H594.5V-490.5H94.5V9.5ZM94.5 43H-405.5V1465.17L484.492 355.9L94.5 43ZM281 288.5V788.5H735.809L778.765 335.724L281 288.5ZM197.5 288.5L-301.889 263.791L-327.851 788.5H197.5V288.5ZM207 96.5L706.389 121.209L707.53 98.1537L706.541 75.0911L207 96.5ZM150 67L34.4638 -419.468L150 67ZM94.5 108.5L594.078 129.031L594.5 118.77V108.5H94.5ZM87 291V791H566.874L586.578 311.531L87 291ZM504.083 311.409L515.583 29.9093L-483.583 -10.9093L-495.083 270.591L504.083 311.409ZM16 509.5H94.5V-490.5H16V509.5ZM-405.5 9.5V43H594.5V9.5H-405.5ZM484.492 355.9C445.314 404.73 403.876 435.665 366.437 455.916C323.578 479.097 263.796 500 191.5 500V-500C-44.1758 -500 -212.658 -373.142 -295.492 -269.9L484.492 355.9ZM191.5 500C133.176 500 50.9397 483.895 -29.8241 425.103C-102.835 371.956 -209.5 252.314 -209.5 64.5H790.5C790.5 -153.678 665.585 -305.571 558.699 -383.377C444.06 -466.827 312.324 -500 191.5 -500V500ZM-209.5 64.5C-209.5 64.0728 -209.568 71.797 -209.974 88.7231C-210.338 103.926 -210.89 123.092 -211.617 143.425C-213.214 188.011 -215.207 224.851 -216.765 241.276L778.765 335.724C787.058 248.308 790.5 96.15 790.5 64.5H-209.5ZM696.889 313.209L706.389 121.209L-292.389 71.7906L-301.889 263.791L696.889 313.209ZM706.541 75.0911C700.697 -61.2832 639.152 -208.25 512.189 -312.667C359.091 -438.577 175.899 -453.059 34.4638 -419.468L265.536 553.468C167.511 576.749 12.5691 571.184 -123.006 459.685C-232.447 369.679 -287.197 242.617 -292.541 117.909L706.541 75.0911ZM34.4638 -419.468C-45.6637 -400.438 -137.682 -362.522 -220.114 -291.12C-289.178 -231.296 -405.5 -97.1973 -405.5 108.5H594.5C594.5 302.197 485.928 420.296 434.614 464.745C369.932 520.772 305.664 543.938 265.536 553.468L34.4638 -419.468ZM586.578 311.531L594.078 129.031L-405.078 87.9694L-412.578 270.469L586.578 311.531ZM87 -209H4.5V791H87V-209ZM197.5 788.5H281V-211.5H197.5V788.5Z" fill="white" mask="url(#path-1-inside-1_1_4)"/>
</g>
<defs>
<filter id="filter0_d_1_4" x="0.5" y="0" width="294" height="299" filterUnits="userSpaceOnUse" color-interpolation-filters="sRGB">
<feFlood flood-opacity="0" result="BackgroundImageFix"/>
<feColorMatrix in="SourceAlpha" type="matrix" values="0 0 0 0 0 0 0 0 0 0 0 0 0 0 0 0 0 0 127 0" result="hardAlpha"/>
<feOffset dy="4"/>
<feGaussianBlur stdDeviation="2"/>
<feComposite in2="hardAlpha" operator="out"/>
<feColorMatrix type="matrix" values="0 0 0 0 0 0 0 0 0 0 0 0 0 0 0 0 0 0 0.25 0"/>
<feBlend mode="normal" in2="BackgroundImageFix" result="effect1_dropShadow_1_4"/>
<feBlend mode="normal" in="SourceGraphic" in2="effect1_dropShadow_1_4" result="shape"/>
</filter>
</defs>
</svg>
