<svg xmlns="http://www.w3.org/2000/svg" width="350" height="364" viewBox="0 0 350 364">
  <defs>
    <style>
      .cls-1 {
        fill-rule: evenodd;
      }
    </style>
  </defs>
  <path id="Color_Fill_1" data-name="Color Fill 1" class="cls-1" d="M46,26H309v99c0,18.573,1.907,39.131-2,55-12.244,49.726-32.78,92.414-68,119l-13,13c-10.387,7.739-20.684,13.983-32,21-4.229,2.623-13.087,10.877-18,9-15.611-4.991-28.789-18.049-41-27-41.72-30.585-72.859-69.7-87-128-4-16.509-2-37.793-2-57V26ZM194,53c-2.483,1.641-5.707.762-9,2-7.477,2.811-16.221,10.495-19,18-3.885,10.491-1,35.832-1,49v82c0,16.683.818,36.38-2,50l-6,5c-22.606,7.552-7.529-44.167-33-31-2.484,1.284-4.01,5.076-6,7-0.531,37.2,58.265,36.3,69,12,5.617-12.715,2-38.574,2-55-0.007-41.958-1.518-86.722,1-127,2.515-1.96,2.522-3.722,6-5,3.91-2.7,9.68.047,13,1,4.849,11.351,1.406,29.586,18,30,4.634-4.089,14.083-11.634,7-21C229.582,56.718,212.2,52.736,194,53Zm-77,56v99h25V109H117Zm84,0v17h11v82h25V126h10V109H201Z"/>
</svg>
