<svg xmlns="http://www.w3.org/2000/svg" width="4444" height="2062" viewBox="0 0 4444 2062">
  <defs>
    <style>
      .cls-1 {
        fill-rule: evenodd;
      }
    </style>
  </defs>
  <path id="Color_Fill_1" data-name="Color Fill 1" class="cls-1" d="M1149,667l50-8,22-1c10.71-2.288,31.3-2.328,42,0l18,1c21.85,5.175,41.72,11.468,53,27,23.98,33.027,16,115.417,16,172v245c0,45.22,4.28,96.94-6,134-9.13,32.91-22.29,56.55-40,80-8.05,10.66-21.62,18.57-33,26-62.84,41.04-234.33,59.43-282-9-17.907-25.71-20.667-69.81-7-102,3.307-7.79,6.469-20.78,16-22,9.34,6.26,25.44,3.28,38,6,44.78,9.71,85.88-4.79,102-31,18.32-29.79,11-106.57,11-154V667Zm646,336c0.19-18.1-1.61-30.765-9-41-27.65-38.282-143.64-33.439-195-18-10.48,3.151-20.75,4.978-30,8-13.83,4.516-26.03,9.492-39,13-2.85-4.034-8.08-6.108-11-10a142.513,142.513,0,0,1-18-31c-12-29.485-3.59-66.635,11-86,11.49-15.254,33.3-22.784,53-30,23.74-8.7,52.18-10.854,80-17l36-2c12.62-2.659,39.15-3.786,52-1h21l51,6c93.04,23.52,151.5,51.605,180,140,9.52,29.543,7,70.66,7,109v188c0,24.94.36,46.85-9,62-5.27,8.53-13.04,16-21,22-8.25,6.22-15.95,14.38-25,20-32.17,19.98-71.33,27.92-114,38q-22.005,2.505-44,5h-16c-17.59,3.7-66.58,2.59-83-1q-10.005-.495-20-1c-18.75-4.28-38.34-5.32-56-11-61.09-19.65-108.67-48.78-132-106-6.39-15.69-6.98-33.35-11-52-1.81-8.39-.49-23.18,1-30,1.98-9.09-.11-16.57,2-25,4.62-18.42,10.36-35.03,19-49,33.81-54.67,77.25-65.2,148-82q39.99-4,80-8c14.32-3.18,30.57-1.56,46-5C1762.98,1004.88,1779.54,1003.27,1795,1003Zm1222,0c0.19-18.1-1.61-30.765-9-41-27.65-38.282-143.64-33.439-195-18-10.48,3.151-20.75,4.978-30,8-13.83,4.516-26.03,9.492-39,13-2.85-4.034-8.08-6.108-11-10a142.513,142.513,0,0,1-18-31c-12-29.485-3.59-66.635,11-86,11.49-15.254,33.3-22.784,53-30,23.74-8.7,52.18-10.854,80-17l36-2c12.62-2.659,39.15-3.786,52-1h21l51,6c93.04,23.52,151.5,51.605,180,140,9.52,29.543,7,70.66,7,109v188c0,24.94.36,46.85-9,62-5.27,8.53-13.04,16-21,22-8.25,6.22-15.95,14.38-25,20-32.17,19.98-71.33,27.92-114,38q-22.005,2.505-44,5h-16c-17.59,3.7-66.58,2.59-83-1q-10.005-.495-20-1c-18.75-4.28-38.34-5.32-56-11-61.09-19.65-108.67-48.78-132-106-6.39-15.69-6.98-33.35-11-52-1.81-8.39-.49-23.18,1-30,1.98-9.09-.11-16.57,2-25,4.62-18.42,10.36-35.03,19-49,33.81-54.67,77.25-65.2,148-82q39.99-4,80-8c14.32-3.18,30.57-1.56,46-5C2984.98,1004.88,3001.54,1003.27,3017,1003Zm-666,202c1.37-14.38,6.98-29.92,11-43,7.04-22.9,10.25-46.82,17-69,11.39-37.45,16.41-77.79,27-115q1.995-11.5,4-23c7.61-26.877,10.09-55.82,18-84a417.92,417.92,0,0,0,12-57c11.23-2.906,21.82-9.361,33-13q17.505-3.5,35-7c13.41-3.058,34.16-1.823,46,1,39.36,9.383,59.91,14.916,70,54,2.51,9.715,4.77,24.014,2,36-1.65,7.131-1.84,15.356-4,23-9.44,33.463-16.1,67.369-27,100-24.33,72.85-49.1,144.81-78,213q-18.66,44.025-37,86c-5.52,12.56-9.33,26.98-17,38-5.4,7.76-29.55,16.58-40,20-51.55,16.88-139.62,13.54-178-12-30.98-20.61-49.13-88.66-65-127-33.17-80.13-58.53-164.45-87-250-7.13-21.411-13.95-45.21-21-67-3.38-10.456-3.59-19.467-7-30-4.54-14.028-9.82-30.43-12-46,4.52-2.955,7.64-7.931,12-11,13.43-9.459,29.42-17.015,46-23,36.51-13.183,89.98-4.449,114,13,27.89,20.258,31.66,59.649,43,97,20.58,67.77,32.29,140.73,54,208,6.84,21.19,10.49,42.8,17,63,2.49,7.72,1.63,17.98,6,24C2346.42,1204.96,2348.27,1204.98,2351,1205Zm-554-74c-17.9-.16-39.41,1.37-56,5q-17.505,1.005-35,2c-29.46,6.72-57.94,11.07-65,40-4.17,17.08,5.09,31.98,12,39,27.4,27.81,109.16,25.34,144,5v-91Zm1222,0c-17.9-.16-39.41,1.37-56,5q-17.505,1.005-35,2c-29.46,6.72-57.94,11.07-65,40-4.17,17.08,5.09,31.98,12,39,27.4,27.81,109.16,25.34,144,5v-91Z"/>
</svg>
