<svg xmlns="http://www.w3.org/2000/svg" width="4444" height="2062" viewBox="0 0 4444 2062">
  <defs>
    <style>
      .cls-1 {
        fill-rule: evenodd;
      }
    </style>
  </defs>
  <path id="Color_Fill_1" data-name="Color Fill 1" class="cls-1" d="M2923,534c61.85-.771,92.94,16.942,115,55,4.2,7.247,6.73,17.684,9,26,2.57,9.446,3.22,25.052,1,35-1.87,8.37-.61,14.673-3,22-12.06,36.964-38.98,60.815-78,71-10.89,2.843-29.49,3.572-41,1-8.36-1.868-14.55-.594-22-3-33.73-10.89-57.21-34.215-69-67-7.65-21.277-5.99-55.47,2-75a106.623,106.623,0,0,1,57-58C2901.6,537.811,2916.44,538.1,2923,534Zm-214,834-54,9q-16.5.495-33,1c-41.74,0-77.36-4.19-95-28-16.57-22.36-17-54-17-94V603h2c8.48-5.656,30.25-4.294,42-7,14.96-3.445,40.11-6.644,57-3,11.45,2.47,21.48-.5,32,2,24.21,5.751,42.67,14.655,54,33,12.32,19.959,12,49.257,12,82v658Zm-1838-3q-21,3.495-42,7c-12.043,2.67-23.321-.71-36,2-38.212,8.17-95.6-6.64-110-26-28.176-37.9-19-134.79-19-201V657a390.945,390.945,0,0,0,41-7c8.92-2.1,18.729-1.221,27-3,9.69-2.084,29.522-1.822,38,0l25,1c22.886,5.159,45.151,10.05,57,26,17.906,24.1,18,60.027,18,103V930h1c11.705-18.722,30.854-32.592,44-50,33.128-43.866,73.9-81.128,107-125,9.91-13.138,24.09-23.876,34-37,12.31-16.307,27.87-29.952,40-46,3.3-4.367,13.84-20.131,18-22h22c3.09,1.828,8.59.017,13,1l35,6c27.26,8.32,50.82,22.612,65,44,18.02,27.181,18.61,77.028,1,106-31.98,52.622-83.32,94.321-126,137q-36,36-72,72l1,1c14.12,21.64,37.2,39.09,53,60q4.995,4.5,10,9c10.79,14.27,24.21,25.73,35,40q6.495,6,13,12c7.74,10.24,18.61,18.23,26,28,9.81,12.98,21.58,25.48,33,37,15.27,15.4,31.85,30.59,45,48,8.47,11.21,18.99,11.1,19,32-3.73,6.13-3.05,19.95-6,27-7.6,18.18-20.77,36.32-36,47-39,27.37-107.83,28.06-147,0-33.99-24.35-69.71-66.41-95-100-5.366-7.13-13.64-12.9-19-20-13.38-17.73-28.625-33.26-42-51-5.358-7.11-13.63-12.87-19-20-11.454-15.2-25.739-28.06-37-43-4.51-5.98-8.9-13.7-15-18v260ZM2236,843h154c6.25,13.192,12.8,27.794,17,43,3.15,11.4,4.66,29.775,2,42q-0.495,8-1,16c-4.38,17.354-11.98,32.343-25,41-24.77,16.46-104.76,10.138-147,10v152c0,27.34-1.21,54.12,14,66,15.81,12.34,55.97,21.99,87,15,13.95-3.14,29.35-7.78,43-9,7.49,12.46,17.11,23.74,22,39,11.3,35.23-3.66,67.74-18,87-40.13,53.92-179.03,51-246,22-14.76-6.39-29.57-15.76-42-25-7.4-5.5-13.45-13.52-19-21a194.41,194.41,0,0,1-30-58c-13.2-41.01-9-99.62-9-152V684h2c10.69-7.523,51.69-9.317,70-11,13.09-1.2,30.84-1.758,43,1,25.72,5.832,42.32,6.808,60,20C2242.54,716.043,2236.24,790.577,2236,843Zm-618-63c141.65-2.855,229.19,55.579,282,142,9.91,16.215,14.97,33.952,22,53,11.44,30.98,16.99,67.35,17,110,0,12.98.46,26.24-2,37-2.53,11.08-.31,20.58-3,31-7.46,28.87-14.13,55.26-25,80-30.41,69.22-90.94,115.06-166,140-23.91,7.94-50.18,7.89-77,14h-17c-8.89,1.91-26.11,2.01-35,0-12.69-2.86-24.03.81-36-2-23.54-5.53-47.13-8.82-67-17-14.03-5.77-27.67-8.51-40-16-60.94-36.99-99.39-77.55-128-147-6.82-16.55-8.22-33.03-13-52-5.73-22.74-10.99-73.65-5-100q1.005-13.5,2-27c6.21-25.73,10.39-50.781,20-73,34.41-79.577,93.31-130.55,179-159,19.4-6.441,40.85-7.178,62-12C1596.57,780.046,1611.1,784.3,1618,780Zm2110,588-28,6c-28.79,6.8-100.93,7.02-125-3-21.36-8.89-35.66-25.1-43-48-7.56-23.59-4-59.54-4-89V1062c0.01-61.78,5.2-101.677-40-120-28.28-11.466-75.11-3.663-98,6-5.61,2.368-21.87,7.561-24,12v408h-2c-8.4,5.9-28,4.32-40,7-44.41,9.91-118.97,3.28-138-22-22.68-30.13-20-70.17-20-123V1007c0-38.313-5.03-88.144,7-116,14.3-33.109,58.58-60.426,92-75,23.92-10.43,50.33-17.637,77-25l49-8,23-1c23.53-5,74.08-2.88,96,2l16,1c16.34,3.892,33.33,5.857,49,11,55.85,18.331,98.93,48.895,127,95,26.92,44.216,26,109.66,26,182v295Zm-688,0-55,9q-16.005.495-32,1c-41.01,0-77.62-3.61-95-27-25.01-33.67-18-104.63-18-163V806l54-9,33-1c42.65,0,78.2,4.481,96,29,24.22,33.361,17,105.272,17,162v381ZM1617,937c-2.97,1.877-6.97.872-11,2-7.46,2.086-16.6,5.1-23,9-23.06,14.066-37.98,37.951-47,66-3.75,11.65-4.35,24.84-7,37v13c-3.07,14.46-1.98,38.62,1,52,2.05,9.19.65,16.54,3,25,10.15,36.57,24.26,64.02,55,80,11.7,6.08,37.45,14.9,59,10,45.9-10.43,66.52-36.64,80-79,4.22-13.27,2.75-25.84,6-41,2.19-10.21,3.22-26.69,1-37v-18c-3.54-16.15-4.1-32.37-9-47C1709.24,961.912,1681.3,936.543,1617,937Z"/>
</svg>
